<svg xmlns="http://www.w3.org/2000/svg" xmlns:xlink="http://www.w3.org/1999/xlink" fill="none" version="1.1" width="286" height="286" viewBox="0 0 286 286"><defs><clipPath id="master_svg0_1_5"><rect x="0" y="0" width="286" height="286" rx="0"/></clipPath><clipPath id="master_svg1_1_03"><rect x="64.715087890625" y="41.7303466796875" width="114.8692855834961" height="206.263916015625" rx="6"/></clipPath><linearGradient x1="0.7398329973220825" y1="0.024235760793089867" x2="0.01396846288194662" y2="0.8059593433918381" id="master_svg2_1_2217"><stop offset="0%" stop-color="#69AEF7" stop-opacity="1"/><stop offset="100.00001192092896%" stop-color="#69C1F7" stop-opacity="1"/></linearGradient><filter id="master_svg3_1_0" filterUnits="objectBoundingBox" color-interpolation-filters="sRGB" x="-0.12334799772185644" y="-0.08872387341116664" width="1.246695995443713" height="1.1774477468223332"><feFlood flood-opacity="0" result="BackgroundImageFix"/><feBlend mode="normal" in="SourceGraphic" in2="BackgroundImageFix" result="shape"/><feGaussianBlur stdDeviation="5" result="effect1_foregroundBlur"/></filter></defs><g clip-path="url(#master_svg0_1_5)"><g transform="matrix(0.9659258127212524,-0.258819043636322,0.258819043636322,0.9659258127212524,-8.59549439370312,18.17142480466282)" clip-path="url(#master_svg1_1_03)"><rect x="64.715087890625" y="41.7303466796875" width="114.8692855834961" height="206.263916015625" rx="6" fill="#F9F9F9" fill-opacity="1"/><g><path d="M61.6718755,42.070648193359624L209.592135,42.070648193359624C211.801265,42.070648193359624,213.592135,43.86150932851562,213.592135,46.07064862851563L213.592135,175.99418922851564C213.592135,178.20331922851562,211.801265,179.99418922851564,209.592135,179.99418922851564L188.385205,179.99418922851564C186.176075,179.99418922851564,184.38520499999998,178.20331922851562,184.38520499999998,175.99418922851564L184.38520499999998,132.9797362285156C184.38520499999998,131.32288322851562,183.04206499999998,129.9797362285156,181.38520499999998,129.9797362285156L162.384795,129.9797362285156C160.727945,129.9797362285156,159.384795,131.32288322851562,159.384795,132.9797362285156L159.384795,175.99418922851564C159.384795,178.20331922851562,157.593933,179.99418922851564,155.384796,179.99418922851564L90.070679,179.99418922851564C87.86154,179.99418922851564,86.070679,178.20331922851562,86.070679,175.99418922851564L86.070679,134.0595702285156C86.070679,132.40271722851563,84.727533,131.0595702285156,83.070679,131.0595702285156L64.0706787,131.0595702285156C62.4138241,131.0595702285156,61.0706787,132.40271722851563,61.0706787,134.0595702285156L61.0706787,178.2947892285156C61.0706787,179.23333922851563,60.3098307,179.99418922851564,59.3712769,179.99418922851564C58.4327231,179.99418922851564,57.671875,179.23333922851563,57.671875,178.2947892285156L57.671875,46.07065052851563C57.671875,43.86150932851562,59.4627361,42.070648193359624,61.6718755,42.070648193359624" fill-rule="evenodd" fill="url(#master_svg2_1_2217)" fill-opacity="1"/></g><g><rect x="120.4601821899414" y="19.98736572265625" width="4.134653091430664" height="170.56361389160156" rx="0" fill="#FFFFFF" fill-opacity="1"/></g><g><rect x="90.5819091796875" y="77.6607666015625" width="64.68474578857422" height="29.7791690826416" rx="3" fill="#69C1F7" fill-opacity="1"/><rect x="88.5819091796875" y="75.6607666015625" width="68.68474578857422" height="33.7791690826416" rx="5" fill-opacity="0" stroke-opacity="1" stroke="#FFFFFF" fill="none" stroke-width="4"/></g></g><g transform="matrix(0.9659258127212524,0.258819043636322,-0.258819043636322,0.9659258127212524,12.790951705879706,-23.15691407459599)" filter="url(#master_svg3_1_0)"><path d="M175.41403233203124,37.000000000000014L186.46166233203127,134.350319L256.48547033203124,149.70924L186.46166233203127,165.06816L175.41403233203124,262.41847L164.36640133203124,165.06816L94.34259033203128,149.70924L164.36640133203124,134.350319L175.41403233203124,37.000000000000014Z" fill="#5892EA" fill-opacity="1"/></g><g transform="matrix(0.9659258127212524,0.258819043636322,-0.258819043636322,0.9659258127212524,12.790951705879706,-23.15691407459599)"><path d="M175.41403233203124,37.000000000000014L186.46166233203127,134.350319L256.48547033203124,149.70924L186.46166233203127,165.06816L175.41403233203124,262.41847L164.36640133203124,165.06816L94.34259033203128,149.70924L164.36640133203124,134.350319L175.41403233203124,37.000000000000014Z" fill="#5892EA" fill-opacity="1"/></g></g></svg>